<mxfile host="app.diagrams.net" modified="2023-08-31T02:58:39.687Z" agent="Mozilla/5.0 (Macintosh; Intel Mac OS X 10_15_7) AppleWebKit/537.36 (KHTML, like Gecko) Chrome/115.0.0.0 Safari/537.36" etag="870ofpM3MGNdBi3rRW6T" version="21.6.9" type="github">
  <diagram id="LPxzDfarXafkQE6jDnBZ" name="Page-1">
    <mxGraphModel dx="881" dy="-367" grid="0" gridSize="10" guides="1" tooltips="1" connect="1" arrows="1" fold="1" page="0" pageScale="1" pageWidth="827" pageHeight="1169" math="0" shadow="0">
      <root>
        <mxCell id="0" />
        <mxCell id="1" parent="0" />
        <mxCell id="-Ru4AuKq-2Gei_yiUdHQ-51" value="" style="fillColor=#dddddd;rounded=0;strokeColor=none;" parent="1" vertex="1">
          <mxGeometry x="75" y="1154" width="936" height="30" as="geometry" />
        </mxCell>
        <mxCell id="-Ru4AuKq-2Gei_yiUdHQ-52" value="2023 Q3" style="shape=mxgraph.infographic.ribbonSimple;notch1=0;notch2=10;notch=0;html=1;fillColor=#10739E;strokeColor=none;shadow=0;fontSize=17;fontColor=#FFFFFF;align=left;spacingLeft=10;fontStyle=1;" parent="1" vertex="1">
          <mxGeometry x="115" y="1144" width="120" height="50" as="geometry" />
        </mxCell>
        <mxCell id="-Ru4AuKq-2Gei_yiUdHQ-53" value="2023 Q4" style="shape=mxgraph.infographic.ribbonSimple;notch1=0;notch2=10;notch=0;html=1;fillColor=#F2931E;strokeColor=none;shadow=0;fontSize=17;fontColor=#FFFFFF;align=left;spacingLeft=10;fontStyle=1;" parent="1" vertex="1">
          <mxGeometry x="325" y="1144" width="120" height="50" as="geometry" />
        </mxCell>
        <mxCell id="-Ru4AuKq-2Gei_yiUdHQ-54" value="2024 Q1" style="shape=mxgraph.infographic.ribbonSimple;notch1=0;notch2=10;notch=0;html=1;fillColor=#AE4132;strokeColor=none;shadow=0;fontSize=17;fontColor=#FFFFFF;align=left;spacingLeft=10;fontStyle=1;" parent="1" vertex="1">
          <mxGeometry x="582" y="1144" width="120" height="50" as="geometry" />
        </mxCell>
        <mxCell id="-Ru4AuKq-2Gei_yiUdHQ-55" value="2024 Q1" style="shape=mxgraph.infographic.ribbonSimple;notch1=0;notch2=10;notch=0;html=1;fillColor=#23445D;strokeColor=none;shadow=0;fontSize=17;fontColor=#FFFFFF;align=left;spacingLeft=10;fontStyle=1;" parent="1" vertex="1">
          <mxGeometry x="815" y="1144" width="120" height="50" as="geometry" />
        </mxCell>
        <mxCell id="-Ru4AuKq-2Gei_yiUdHQ-56" value="&lt;b style=&quot;color: rgb(242 , 147 , 30)&quot;&gt;&amp;nbsp; &amp;nbsp; &amp;nbsp; &amp;nbsp; &amp;nbsp; &amp;nbsp; &amp;nbsp; &amp;nbsp; &amp;nbsp; &amp;nbsp; &amp;nbsp; v5.7.0&lt;/b&gt;&lt;font color=&quot;#10739e&quot;&gt;&lt;span&gt;&lt;br&gt;&lt;br&gt;&lt;/span&gt;&lt;br&gt;&lt;/font&gt;" style="rounded=1;strokeColor=none;fillColor=#DDDDDD;align=left;arcSize=12;verticalAlign=top;whiteSpace=wrap;html=1;fontSize=12;fontStyle=1" parent="1" vertex="1">
          <mxGeometry x="80" y="1201" width="192" height="120" as="geometry" />
        </mxCell>
        <mxCell id="-Ru4AuKq-2Gei_yiUdHQ-61" value="1、优化微服务平台的资源模型&lt;br&gt;2、全链路监控及压测&lt;br&gt;3、配置中心优化（Apollo支持）&lt;br&gt;4、服务契约优化&lt;br&gt;5、feature flag 调研及初步能力&lt;br&gt;6、分布式事务支持&lt;br&gt;&lt;div&gt;&lt;/div&gt;" style="text;html=1;" parent="1" vertex="1">
          <mxGeometry x="91" y="1219" width="202" height="102" as="geometry" />
        </mxCell>
        <mxCell id="-Ru4AuKq-2Gei_yiUdHQ-70" value="&lt;b style=&quot;color: rgb(242 , 147 , 30)&quot;&gt;&amp;nbsp; &amp;nbsp; &amp;nbsp; &amp;nbsp; &amp;nbsp; &amp;nbsp; &amp;nbsp; &amp;nbsp; &amp;nbsp; &amp;nbsp; &amp;nbsp; &amp;nbsp; &amp;nbsp; &amp;nbsp; &amp;nbsp; &amp;nbsp; &amp;nbsp; &amp;nbsp; &amp;nbsp; &amp;nbsp; &amp;nbsp; &amp;nbsp; &amp;nbsp; &amp;nbsp; &amp;nbsp;v6.1.0&lt;/b&gt;&lt;font color=&quot;#10739e&quot;&gt;&lt;span&gt;&lt;br&gt;&lt;br&gt;&lt;/span&gt;&lt;br&gt;&lt;/font&gt;" style="rounded=1;strokeColor=none;fillColor=#DDDDDD;align=left;arcSize=12;verticalAlign=top;whiteSpace=wrap;html=1;fontSize=12;fontStyle=1" parent="1" vertex="1">
          <mxGeometry x="632" y="1205.5" width="355" height="109" as="geometry" />
        </mxCell>
        <mxCell id="7" value="&lt;font style=&quot;font-size: 10px&quot;&gt;&lt;font style=&quot;font-size: 12px&quot; color=&quot;#F2931E&quot;&gt;&lt;b&gt;v6.0&lt;/b&gt;&lt;/font&gt;&lt;br&gt;&lt;/font&gt;" style="rounded=1;strokeColor=none;fillColor=#DDDDDD;align=center;arcSize=12;verticalAlign=top;whiteSpace=wrap;html=1;fontSize=12;" parent="1" vertex="1">
          <mxGeometry x="252" y="1012" width="386" height="117" as="geometry" />
        </mxCell>
        <mxCell id="8" value="&lt;font style=&quot;font-size: 10px&quot;&gt;&lt;font style=&quot;font-size: 12px&quot; color=&quot;#F2931E&quot;&gt;&lt;b&gt;v5.6.1&lt;br&gt;&lt;/b&gt;&lt;/font&gt;发布 fixpack 版本，提供 v5.6.0 的升级支持&lt;br&gt;&lt;/font&gt;" style="rounded=1;strokeColor=none;fillColor=#DDDDDD;align=center;arcSize=12;verticalAlign=top;whiteSpace=wrap;html=1;fontSize=12;" parent="1" vertex="1">
          <mxGeometry x="312" y="1205.5" width="160" height="50" as="geometry" />
        </mxCell>
        <mxCell id="9" value="&lt;div&gt;1、多语言服务治理优化（Golang、Python、Node、.Net）&lt;/div&gt;&lt;span style=&quot;white-space: nowrap&quot;&gt;2、&lt;/span&gt;基于 VPN、CloudIDE 等技术支持本地、云端的微服务开发、调试&lt;br&gt;&lt;span style=&quot;white-space: nowrap&quot;&gt;3、融合&lt;/span&gt;多种注册中心（企业现状的过渡）&lt;br&gt;&lt;span style=&quot;white-space: nowrap&quot;&gt;4、&lt;/span&gt;基于低代码方式重构部分产品模块&lt;br&gt;&lt;span style=&quot;white-space: nowrap&quot;&gt;5、继续优化 feature flag 的产品能力&lt;br&gt;&lt;/span&gt;" style="text;html=1;whiteSpace=wrap;" parent="1" vertex="1">
          <mxGeometry x="269" y="1029" width="350" height="85" as="geometry" />
        </mxCell>
        <mxCell id="10" value="&lt;div&gt;&lt;/div&gt;&lt;div&gt;1、调研 Proxyless Mesh 并通过微服务治理进行集成&lt;/div&gt;&lt;div&gt;2、DAPR Java 客户端调研&lt;/div&gt;&lt;div&gt;3、提供丰富的开发脚手架，增强业务标准化的同时，提高业务开发的效率&lt;/div&gt;&lt;div&gt;4、研发结合低代码、feature flag 的新一代微服务开发框架&lt;/div&gt;" style="text;html=1;whiteSpace=wrap;" parent="1" vertex="1">
          <mxGeometry x="642" y="1226" width="330" height="85" as="geometry" />
        </mxCell>
      </root>
    </mxGraphModel>
  </diagram>
</mxfile>
